# AST/ASF file generated using VICON BodyLanguage
# -----------------------------------------------
:version 1.10
:name VICON
:units
  mass 1.0
  length 0.45
  angle deg
:documentation
   .ast/.asf automatically generated from VICON data using
   VICON BodyBuilder and BodyLanguage model FoxedUp or BRILLIANT.MOD
:root
   order TX TY TZ RX RY RZ
   axis XYZ
   position 0 0 0  
   orientation 0 -0 0 
:bonedata
  begin
     id 1 
     name lhipjoint
     direction 0.432694 -0.693742 0.575759 
     length 2.19277 
     axis 0 -0 0  XYZ
  end
  begin
     id 2 
     name lfemur
     direction 0.34202 -0.939693 0  
     length 6.69022  
     axis 0 -0 20  XYZ
    dof rx ry rz
    limits (-160.0 20.0)
           (-70.0 70.0)
           (-60.0 70.0)
  end
  begin
     id 3 
     name ltibia
     direction 0.34202 -0.939693 0   
     length 6.50337   
     axis 0 -0 20   XYZ
    dof rx
    limits (-10.0 170.0)
  end
  begin
     id 4 
     name lfoot
     direction 0.158999 -0.435969 0.885805   
     length 2.70564   
     axis -90 -1.13533e-015 20   XYZ
    dof rx rz
    limits (-45.0 90.0)
           (-70.0 20.0)
  end
  begin
     id 5 
     name ltoes
     direction -0.00592919 0.00964381 0.999936   
     length 1.29929   
     axis -90 -1.13533e-015 20   XYZ
    dof rx
    limits (-90.0 20.0)
  end
  begin
     id 6 
     name rhipjoint
     direction -0.414359 -0.700339 0.581234   
     length 2.17212  
     axis 0 -0 0  XYZ 
  end
  begin
     id 7 
     name rfemur
     direction -0.34202 -0.939693 0   
     length 7.17659   
     axis 0 -0 -20   XYZ
    dof rx ry rz
    limits (-160.0 20.0)
           (-70.0 70.0)
           (-70.0 60.0)
  end
  begin
     id 8 
     name rtibia
     direction -0.34202 -0.939693 0   
     length 6.36669   
     axis 0 -0 -20   XYZ
    dof rx
    limits (-10.0 170.0)
 end
 begin
     id 9 
     name rfoot
     direction -0.137064 -0.37658 0.916188   
     length 2.22351  
     axis -90 1.13533e-015 -20   XYZ
    dof rx rz
    limits (-45.0 90.0)
           (-20.0 70.0)
  end
  begin
     id 10 
     name rtoes
     direction -0.000784077 -0.00289101 0.999996   
     length 1.09522   
     axis -90 1.13533e-015 -20   XYZ
    dof rx
    limits (-90.0 20.0)
  end
  begin
     id 11 
     name lowerback
     direction -0.0176242 0.984912 -0.172157   
     length 1.65301   
     axis 0 -0 0   XYZ
    dof rx ry rz
    limits (-20.0 45.0)
           (-30.0 30.0)
           (-30.0 30.0)
  end
  begin
     id 12 
     name upperback
     direction -0.00218128 0.998776 -0.0494072   
     length 1.67776   
     axis 0 -0 0   XYZ
    dof rx ry rz
    limits (-20.0 45.0)
           (-30.0 30.0)
           (-30.0 30.0)
  end
  begin
     id 13 
     name thorax
     direction 0.00544186 0.999658 0.0255711   
     length 1.72293   
     axis 0 -0 0   XYZ
    dof rx ry rz
    limits (-20.0 45.0)
           (-30.0 30.0)
           (-30.0 30.0)
  end
  begin
     id 14 
     name lowerneck
     direction -0.105325 0.983841 0.144785   
     length 2.14226   
     axis 0 -0 0   XYZ
    dof rx ry rz
    limits (-20.0 45.0)
           (-30.0 30.0)
           (-30.0 30.0)
  end
  begin
     id 15 
     name upperneck
     direction 0.0547957 0.988053 -0.144041   
     length 2.17508   
     axis 0 -0 0   XYZ
    dof rx ry rz
    limits (-20.0 45.0)
           (-30.0 30.0)
           (-30.0 30.0)
  end
  begin
     id 16
     name head
     direction 0.0247488 0.997534 -0.0656813  
     length 2.20048  
     axis 0 -0 0   XYZ
    dof rx ry rz
    limits (-20.0 45.0)
           (-30.0 30.0)
           (-30.0 30.0)
  end
  begin
     id 17 
     name lclavicle
     direction 0.820559 0.567247 -0.0701026  
     length 4.09615  
     axis 0 -0 0   XYZ
    dof ry rz
    limits (-20.0 10.0)
           (0.0 20.0)
  end
  begin
     id 18 
     name lhumerus
     direction 0.999977 -0.0067566 -9.96392e-005   
     length 4.59333   
     axis -180 -30 -90   XYZ
    dof rx ry rz
    limits (-60.0 90.0)
           (-90.0 90.0)
           (-90.0 90.0)
  end
  begin
     id 19
     name lradius
     direction 1 -4.48982e-011 -2.53425e-027   
     length 2.81151   
     axis -180 -30 -90   XYZ
    dof rx
    limits (-10.0 170.0)
  end
  begin
     id 20
     name lwrist
     direction 1 -4.48939e-011 -7.39254e-028   
     length 1.40576   
     axis 2.56395e-016 90 90   XYZ
    dof ry
    limits (-180.0 0.0)
 end
  begin
     id 21 
     name lhand
     direction 1 -4.48939e-011 -1.47851e-027   
     length 0.895651   
     axis 9.43423e-016 90 90   XYZ
    dof rx rz
    limits (-90.0 90.0)
           (-45.0 45.0)
  end
  begin
     id 22 
     name lfingers
     direction 1 -4.48978e-011 -2.95702e-027   
     length 0.722097   
     axis 1.88685e-015 90 90   XYZ
    dof rx
    limits (0.0 90.0)
  end
  begin
     id 23
     name lthumb
     direction 0.707107 -6.34931e-011 0.707107   
     length 1.03679   
     axis -90 45 -9.86935e-015   XYZ
    dof rx rz
    limits (-45.0 45.0)
           (-45.0 45.0)
  end
  begin
     id 24 
     name rclavicle
     direction -0.831414 0.553102 -0.0531864   
     length 4.24872  
     axis 0 -0 0   XYZ 
    dof ry rz
    limits (-10.0 20.0)
           (-20.0 0.0)
  end
  begin
     id 25 
     name rhumerus
     direction -0.999916 -0.000939607 0.0129331  
     length 4.74834   
     axis -180 30 90   XYZ
    dof rx ry rz
    limits (-90.0 60.0)
           (-90.0 90.0)
           (-90.0 90.0)
  end
  begin
     id 26 
     name rradius
     direction -1 -4.48956e-011 -1.31752e-027   
     length 2.79907   
     axis -180 30 90   XYZ
    dof rx
    limits (-10.0 170.0)
  end
  begin
     id 27 
     name rwrist
     direction -1 -4.4897e-011 -7.39254e-028   
     length 1.39954   
     axis 2.56395e-016 -90 -90   XYZ
    dof ry
    limits (-180.0 0.0)
  end
  begin
     id 28
     name rhand
     direction -0.999997 -0.00250697 0.000800838   
     length 0.953304   
     axis 9.43423e-016 -90 -90   XYZ
    dof rx rz
    limits (-90.0 90.0)
           (-45.0 45.0)
  end
  begin
     id 29
     name rfingers
     direction -1 -4.48954e-011 -2.95702e-027   
     length 0.763342   
     axis 1.88685e-015 -90 -90   XYZ
    dof rx
    limits (0.0 90.0)
  end
  begin
     id 30
     name rthumb
     direction -0.709701 -0.00217037 0.7045   
     length 1.10115   
     axis -90 -45 9.86935e-015   XYZ
    dof rx rz
    limits (-45.0 45.0)
           (-45.0 45.0)
  end
:hierarchy
  begin
    root lhipjoint rhipjoint lowerback
    lhipjoint lfemur
    lfemur ltibia
    ltibia lfoot
    lfoot ltoes
    rhipjoint rfemur
    rfemur rtibia
    rtibia rfoot
    rfoot rtoes
    lowerback upperback
    upperback thorax
    thorax lowerneck lclavicle rclavicle
    lowerneck upperneck
    upperneck head
    lclavicle lhumerus
    lhumerus lradius
    lradius lwrist
    lwrist lhand lthumb
    lhand lfingers
    rclavicle rhumerus
    rhumerus rradius
    rradius rwrist
    rwrist rhand rthumb
    rhand rfingers
  end

#!OML:ASF G:\ViconDB\ViconDB\414\test\team2\shane.ASF
:FULLY-SPECIFIED
:DEGREES
1
root -6.11718 16.8373 -19.9607 -3.01224 -18.9681 -5.76508
lowerback 10.0121 1.77657 3.86403
upperback 4.51354 2.69955 1.68834
thorax -0.815745 1.36701 -0.703315
lowerneck -18.9531 1.2569 -3.11517
upperneck 24.4273 1.00478 6.18996
head 10.9758 0.935696 2.926
rclavicle 1.7959e-014 8.89561e-015
rhumerus -30.9179 -10.1257 -86.0085
rradius 20.8774
rwrist 52.6255
rhand -33.4277 -14.5611
rfingers 7.12502
rthumb -6.62714 -44.4374
lclavicle 1.7959e-014 8.89561e-015
lhumerus -29.4124 -16.9481 94.3288
lradius 24.1275
lwrist -18.5817
lhand -40.3419 6.73761
lfingers 7.12502
lthumb -13.2974 36.2934
rfemur 10.8183 -18.5157 15.7153
rtibia 16.8061
rfoot -23.892 6.51296
rtoes -6.63435
lfemur -8.06288 -2.00853 -4.00035
ltibia 45.2847
lfoot -24.5067 -5.13717
ltoes -17.7352
2
root -6.17499 16.8449 -19.9166 -2.98339 -18.907 -5.61531
lowerback 10.1532 1.90955 3.83393
upperback 4.44496 2.88229 1.62827
thorax -0.955439 1.45549 -0.774203
lowerneck -18.8336 1.17723 -3.30014
upperneck 24.3895 0.886598 6.41941
head 10.9422 0.892471 3.02108
rclavicle 3.90239e-014 -2.65378e-014
rhumerus -30.1164 -8.41301 -87.3259
rradius 21.3398
rwrist 51.1867
rhand -33.5281 -15.0687
rfingers 7.12502
rthumb -6.72405 -44.9419
lclavicle 3.90239e-014 -2.65378e-014
lhumerus -30.286 -17.4632 94.59
lradius 24.1831
lwrist -17.4593
lhand -40.392 6.8697
lfingers 7.12502
lthumb -13.3456 36.4223
rfemur 11.2079 -18.3112 15.7394
rtibia 16.2819
rfoot -23.666 6.30319
rtoes -6.40912
lfemur -9.04101 -1.36517 -4.39303
ltibia 45.6445
lfoot -24.6556 -5.57939
ltoes -17.6955
3
root -6.23893 16.8482 -19.8642 -2.98339 -18.8228 -5.364
lowerback 10.1972 2.0912 3.73081
upperback 4.39231 3.1169 1.55018
thorax -1.02622 1.57069 -0.824666
lowerneck -18.7775 1.12678 -3.15263
upperneck 24.4277 0.840163 6.15705
head 10.9513 0.852152 2.89361
rclavicle -5.58833e-014 1.63997e-015
rhumerus -29.2656 -7.67909 -88.2597
rradius 21.7751
rwrist 50.3214
rhand -33.482 -15.2265
rfingers 7.12502
rthumb -6.67956 -45.1012
lclavicle -5.58833e-014 1.63997e-015
lhumerus -30.9952 -17.4725 94.5173
lradius 23.8321
lwrist -17.7224
lhand -40.1574 6.26339
lfingers 7.12502
lthumb -13.1195 35.8307
rfemur 11.674 -18.2056 15.6249
rtibia 15.714
rfoot -23.5306 6.041
rtoes -6.86887
lfemur -9.85493 -0.691403 -4.79674
ltibia 45.5093
lfoot -24.7856 -6.60415
ltoes -17.8101
4
root -6.28239 16.8554 -19.8065 -2.89993 -18.895 -5.23685
lowerback 10.2537 2.25374 4.0381
upperback 4.33996 3.36352 1.44076
thorax -1.07573 1.69657 -1.13785
lowerneck -18.8289 1.10865 -3.05883
upperneck 24.5435 0.83729 5.96199
head 11.0067 0.836163 2.81043
rclavicle -2.89449e-014 -2.28602e-014
rhumerus -28.3762 -6.15227 -89.3852
rradius 22.3594
rwrist 48.5114
rhand -33.3658 -14.9006
rfingers 7.12502
rthumb -6.56735 -44.7788
lclavicle -2.89449e-014 -2.28602e-014
lhumerus -31.7241 -17.3152 94.4971
lradius 23.3293
lwrist -18.6816
lhand -40.6318 6.39052
lfingers 7.12502
lthumb -13.5768 35.9278
rfemur 12.0898 -18.1578 15.5354
rtibia 15.0054
rfoot -23.1886 6.04321
rtoes -7.15903
lfemur -10.7117 -0.156234 -5.32576
ltibia 45.2834
lfoot -25.2156 -6.88331
ltoes -18.279
5
root -6.33406 16.8636 -19.7495 -2.86155 -18.7665 -5.11002
lowerback 10.5072 2.38065 4.22204
upperback 4.2011 3.56531 1.29608
thorax -1.32747 1.79363 -1.42718
lowerneck -18.8227 1.08521 -2.87452
upperneck 24.6524 0.771232 5.86042
head 11.0521 0.811207 2.73564
rclavicle -2.77553e-014 -1.26228e-014
rhumerus -27.5992 -5.10796 -90.45
rradius 22.9504
rwrist 47.2621
rhand -33.46 -15.054
rfingers 7.12502
rthumb -6.65833 -44.9293
lclavicle -2.77553e-014 -1.26228e-014
lhumerus -32.917 -18.1962 94.7664
lradius 23.7072
lwrist -16.9119
lhand -40.3215 6.56668
lfingers 7.12502
lthumb -13.2777 36.1237
rfemur 12.6682 -18.1044 15.5106
rtibia 14.1421
rfoot -22.648 5.79434
rtoes -7.75822
lfemur -11.5901 -0.0233836 -5.72175
ltibia 44.7595
lfoot -25.3452 -7.96427
ltoes -17.8956
6
root -6.39127 16.8692 -19.6854 -2.86546 -18.662 -4.92639
lowerback 10.4981 2.53391 4.15699
upperback 4.21096 3.76099 1.2793
thorax -1.30497 1.89148 -1.42825
lowerneck -18.8261 1.0113 -3.04087
upperneck 24.6184 0.721784 5.86214
head 11.0414 0.773886 2.75653
rclavicle -2.76839e-014 -7.87684e-015
rhumerus -26.6476 -3.85944 -91.4001
rradius 23.6373
rwrist 45.4853
rhand -33.4023 -15.1252
rfingers 7.12502
rthumb -6.60255 -45.0023
lclavicle -2.76839e-014 -7.87684e-015
lhumerus -33.5839 -17.9026 94.8021
lradius 23.433
lwrist -17.0142
lhand -40.2753 7.08225
lfingers 7.12502
lthumb -13.2332 36.6422
rfemur 13.3665 -17.8218 15.4719
rtibia 13.1364
rfoot -22.1773 5.51899
rtoes -7.59195
lfemur -12.3295 0.445135 -6.19312
ltibia 43.9999
lfoot -25.7306 -8.90978
ltoes -18.4283
